<svg version="1.1" x="0" y="0" xml:space="preserve" id="svg89" width="124.8" height="124.8" xmlns="http://www.w3.org/2000/svg"><style type="text/css" id="style1">.st4{fill:#d60956}</style><g id="Logo_Pfade" transform="translate(-22.6 -11.3)"><g id="g89"><g id="g47" transform="translate(0 17)"><path class="st4" d="M85 11.3c-34.4 0-62.4 20.3-62.4 45.4 0 25 27.9 45.4 62.4 45.4s62.4-20.3 62.4-45.4c0-25.1-27.9-45.4-62.4-45.4ZM66.4 73.7l-8.3-11.5v11.5h-6.4v-39h6.4v23.7l8.1-10.7h7.3L64 60.2l9.7 13.5ZM91.8 53H86v20.7h-6.4V53h-3.7l.6-5.3h3.1v-5.5c0-2.3.7-4.2 2.1-5.5 1.4-1.3 3.3-2 5.8-2 1.4 0 2.8.2 4.2.5l-.6 5.2c-.6-.2-1.3-.3-2-.3-2 0-3.1 1.1-3.1 3.2v4.4h5.7V53Zm26.6 20.7h-6.1l-.1-1.7c-1 .7-2.1 1.3-3.1 1.6-1.1.4-2.4.5-3.9.5-2.5 0-4.7-.6-6.5-1.8-1.8-1.2-3.2-2.8-4.1-4.9-.9-2-1.4-4.3-1.4-6.8s.5-4.7 1.4-6.8c.9-2 2.3-3.7 4.1-4.9 1.8-1.2 4-1.8 6.5-1.8s4.8.7 6.8 2.1V34.7h6.4z" id="path46"/><path class="st4" d="M106.1 52.6c-2 0-3.6.7-4.7 2.2-1.1 1.5-1.7 3.5-1.7 5.9 0 2.5.6 4.4 1.7 5.9s2.7 2.2 4.7 2.2 3.6-.7 4.6-2.2c1-1.5 1.5-3.4 1.5-6 0-2.5-.5-4.5-1.5-6-1-1.3-2.5-2-4.6-2z" id="path47"/></g></g></g></svg>