<svg version="1.1" x="0" y="0" xml:space="preserve" id="svg89" width="366" height="92.4" xmlns="http://www.w3.org/2000/svg"><style type="text/css" id="style1">.st0{display:none}.st2{display:inline}.st3{fill:#fff}.st4{fill:#d60956}.st5{display:inline;fill:#ededed}</style><g id="Logo_Pfade" transform="translate(-22 -10)"><g id="g89"><g id="g47"><path class="st4" d="M85 11.3c-34.4 0-62.4 20.3-62.4 45.4 0 25 27.9 45.4 62.4 45.4s62.4-20.3 62.4-45.4c0-25.1-27.9-45.4-62.4-45.4ZM66.4 73.7l-8.3-11.5v11.5h-6.4v-39h6.4v23.7l8.1-10.7h7.3L64 60.2l9.7 13.5ZM91.8 53H86v20.7h-6.4V53h-3.7l.6-5.3h3.1v-5.5c0-2.3.7-4.2 2.1-5.5 1.4-1.3 3.3-2 5.8-2 1.4 0 2.8.2 4.2.5l-.6 5.2c-.6-.2-1.3-.3-2-.3-2 0-3.1 1.1-3.1 3.2v4.4h5.7V53Zm26.6 20.7h-6.1l-.1-1.7c-1 .7-2.1 1.3-3.1 1.6-1.1.4-2.4.5-3.9.5-2.5 0-4.7-.6-6.5-1.8-1.8-1.2-3.2-2.8-4.1-4.9-.9-2-1.4-4.3-1.4-6.8s.5-4.7 1.4-6.8c.9-2 2.3-3.7 4.1-4.9 1.8-1.2 4-1.8 6.5-1.8s4.8.7 6.8 2.1V34.7h6.4z" id="path46"/><path class="st4" d="M106.1 52.6c-2 0-3.6.7-4.7 2.2-1.1 1.5-1.7 3.5-1.7 5.9 0 2.5.6 4.4 1.7 5.9s2.7 2.2 4.7 2.2 3.6-.7 4.6-2.2c1-1.5 1.5-3.4 1.5-6 0-2.5-.5-4.5-1.5-6-1-1.3-2.5-2-4.6-2z" id="path47"/></g><g id="g88"><path class="st4" d="M168.8 25.7h2.6v14h-2.6zm2.7 6.6 5.2-6.6h3l-5.2 6.6 5.2 7.4h-3z" id="path48"/><path class="st4" d="M188.6 36.4h-5.1l-1.2 3.3h-2.5l5-14h2.4l5 14h-2.5zm-.8-2.3-1.7-5-1.8 5z" id="path49"/><path class="st4" d="M195.5 28.2h-4v-2.5H202v2.5h-4v11.5h-2.6V28.2Z" id="path50"/><path class="st4" d="M203.8 25.7h2.6v5.5h6.4v-5.5h2.6v14h-2.6v-6.1h-6.4v6.1h-2.6z" id="path51"/><path class="st4" d="M221 39c-1-.6-1.9-1.5-2.5-2.6-.6-1.1-.9-2.4-.9-3.8s.3-2.7.9-3.8c.6-1.1 1.4-2 2.5-2.6 1.1-.6 2.2-.9 3.5-.9 1.3 0 2.5.3 3.6.9 1 .6 1.9 1.5 2.5 2.6.6 1.1.9 2.4.9 3.8s-.3 2.7-.9 3.8c-.6 1.1-1.4 2-2.5 2.6-1 .6-2.2.9-3.6.9-1.3.1-2.5-.2-3.5-.9Zm6.6-2.8c.7-.9 1.1-2 1.1-3.5 0-1.4-.4-2.6-1.1-3.5-.7-.9-1.8-1.3-3.1-1.3-1.4 0-2.4.4-3.1 1.3-.7.9-1.1 2-1.1 3.5 0 1.4.4 2.6 1.1 3.5.7.9 1.8 1.3 3.1 1.3 1.4 0 2.4-.5 3.1-1.3z" id="path52"/><path class="st4" d="M233.6 25.7h2.6v11.7h5.8v2.3h-8.3v-14z" id="path53"/><path class="st4" d="M243.6 25.7h2.6v14h-2.6z" id="path54"/><path class="st4" d="M250.8 39.6c-.9-.2-1.6-.4-2.1-.7l.3-2.7c1.8.9 3.3 1.3 4.6 1.3.7 0 1.3-.1 1.7-.4.4-.3.6-.7.6-1.2 0-.4-.1-.7-.3-1-.2-.3-.5-.5-1-.7-.5-.2-1.1-.4-2-.8-.9-.3-1.6-.6-2.1-.9-.6-.3-1-.7-1.3-1.3-.3-.5-.5-1.1-.5-1.9 0-1.2.4-2.2 1.3-2.9.9-.7 2.1-1.1 3.8-1.1.8 0 1.5.1 2.3.3.8.2 1.5.4 2.1.6l-.3 2.6c-.8-.4-1.6-.6-2.3-.8-.7-.2-1.4-.3-2-.3-.8 0-1.3.1-1.7.4-.4.3-.6.6-.6 1.1 0 .4.1.7.3.9.2.2.5.4.9.6.4.2.9.4 1.6.6 1.6.5 2.8 1.1 3.5 1.8.7.7 1.1 1.6 1.1 2.7s-.4 2-1.1 2.9c-.8.8-2.2 1.2-4.3 1.2-.7.1-1.6 0-2.5-.3z" id="path55"/><path class="st4" d="M263.5 39.1c-1.1-.6-1.9-1.5-2.5-2.5-.6-1.1-.9-2.4-.9-3.8s.3-2.7.9-3.8c.6-1.1 1.5-2 2.6-2.6 1.1-.6 2.3-.9 3.8-.9 1.3 0 2.6.3 3.6.8l-.3 2.4c-.6-.3-1.1-.5-1.6-.6-.5-.1-1.1-.2-1.7-.2-1.4 0-2.5.4-3.3 1.3-.8.9-1.2 2-1.2 3.5s.4 2.6 1.1 3.5c.7.9 1.8 1.3 3.2 1.3.6 0 1.2-.1 1.7-.2s1.1-.3 1.7-.6l.3 2.4c-1.2.5-2.4.8-3.7.8-1.4.1-2.6-.2-3.7-.8z" id="path56"/><path class="st4" d="M273.1 25.7h2.6v5.5h6.4v-5.5h2.6v14H282v-6.1h-6.4v6.1H273v-14z" id="path57"/><path class="st4" d="M287.7 25.7h9v2.5h-6.3v3h4.9v2.5h-4.9v3.6h6.5v2.5h-9.2z" id="path58"/><path class="st4" d="M168.8 48.2h8.6v2.5h-6.1v3h4.7v2.5h-4.7v6.1h-2.6V48.2Z" id="path59"/><path class="st4" d="M179.3 48.2h5.1c1.5 0 2.7.4 3.5 1.1.9.7 1.3 1.8 1.3 3.2 0 1-.2 1.8-.6 2.4-.4.6-1 1.1-1.8 1.5l3.2 5.9h-2.9l-2.7-5.2h-2.6v5.2h-2.6V48.2Zm4.4 6.6c1.9 0 2.8-.8 2.8-2.3 0-.7-.2-1.3-.6-1.7-.4-.4-1.1-.6-2.1-.6h-2v4.5h1.9z" id="path60"/><path class="st4" d="M199.1 58.9H194l-1.2 3.3h-2.5l5-14h2.4l5 14h-2.5zm-.8-2.3-1.7-5-1.8 5z" id="path61"/><path class="st4" d="M205.3 60.8c-1-1.1-1.5-2.6-1.5-4.6v-8h2.6v7.3c0 1 .1 1.8.3 2.4.2.6.5 1.2 1 1.5.5.4 1.1.5 2 .5.9 0 1.5-.2 2-.5.5-.4.8-.9 1-1.5.2-.6.3-1.5.3-2.4v-7.3h2.6v8c0 2-.5 3.5-1.5 4.6-1 1.1-2.4 1.7-4.3 1.7s-3.6-.6-4.5-1.7z" id="path62"/><path class="st4" d="M218.3 48.2h9v2.5H221v3h4.9v2.5H221v3.6h6.5v2.5h-9.2z" id="path63"/><path class="st4" d="M229.7 48.2h2.5l6 9v-9h2.6v14h-2.1l-6.4-9.6v9.6h-2.6z" id="path64"/><path class="st4" d="M246.3 61.6c-1.1-.6-1.9-1.5-2.4-2.5-.6-1.1-.8-2.4-.8-3.9 0-1.4.3-2.7.9-3.8.6-1.1 1.5-2 2.6-2.5 1.1-.6 2.4-.9 3.8-.9.7 0 1.4.1 2.1.2.7.1 1.3.3 1.8.6l-.3 2.4c-1.2-.5-2.4-.8-3.6-.8-1.5 0-2.6.4-3.4 1.3-.8.9-1.1 2-1.1 3.4 0 1.5.4 2.7 1.1 3.6.7.9 1.8 1.3 3.2 1.3.6 0 1.2-.1 1.9-.2v-2.5h-1.9v-2.1h4.5v6.2c-.5.3-1.2.6-2 .8-.8.2-1.7.3-2.6.3-1.5 0-2.8-.3-3.8-.9z" id="path65"/><path class="st4" d="M257.1 48.2h9v2.5h-6.3v3h4.9v2.5h-4.9v3.6h6.5v2.5h-9.2z" id="path66"/><path class="st4" d="m280 62.2-1.2-9.4-3.6 6.4-3.6-6.4-1.2 9.4h-2.7l1.9-14h2.1l3.4 6.4 3.4-6.4h2.1l1.9 14z" id="path67"/><path class="st4" d="M285 48.2h9v2.5h-6.3v3h4.9v2.5h-4.9v3.6h6.5v2.5H285Z" id="path68"/><path class="st4" d="M296.4 48.2h2.6v14h-2.6z" id="path69"/><path class="st4" d="M302 48.2h2.5l6 9v-9h2.6v14H311l-6.4-9.6v9.6H302Z" id="path70"/><path class="st4" d="M317.7 62.1c-.9-.2-1.6-.4-2.1-.7l.3-2.7c1.8.9 3.3 1.3 4.6 1.3.7 0 1.3-.1 1.7-.4.4-.3.6-.7.6-1.2 0-.4-.1-.7-.3-1-.2-.3-.5-.5-1-.7-.5-.2-1.1-.4-2-.8-.9-.3-1.6-.6-2.1-.9-.6-.3-1-.7-1.3-1.3-.3-.5-.5-1.1-.5-1.9 0-1.2.4-2.2 1.3-2.9.9-.7 2.1-1.1 3.8-1.1.8 0 1.5.1 2.3.3.8.2 1.5.4 2.1.6l-.3 2.6c-.8-.4-1.6-.6-2.3-.8-.7-.2-1.4-.3-2-.3-.8 0-1.3.1-1.7.4-.4.3-.6.6-.6 1.1 0 .4.1.7.3.9.2.2.5.4.9.6.4.2.9.4 1.6.6 1.6.5 2.8 1.1 3.5 1.8.7.7 1.1 1.6 1.1 2.7s-.4 2-1.1 2.9c-.8.8-2.2 1.2-4.3 1.2-.8.1-1.6 0-2.5-.3z" id="path71"/><path class="st4" d="M330.4 61.6c-1.1-.6-1.9-1.5-2.5-2.5-.6-1.1-.9-2.4-.9-3.8s.3-2.7.9-3.8c.6-1.1 1.5-2 2.6-2.6 1.1-.6 2.3-.9 3.8-.9 1.3 0 2.6.3 3.6.8l-.3 2.4c-.6-.3-1.1-.5-1.6-.6-.5-.1-1.1-.2-1.7-.2-1.4 0-2.5.4-3.3 1.3-.8.9-1.2 2-1.2 3.5s.4 2.6 1.1 3.5c.7.9 1.8 1.3 3.2 1.3.6 0 1.2-.1 1.7-.2s1.1-.3 1.7-.6l.3 2.4c-1.2.5-2.4.8-3.7.8-1.4.1-2.7-.2-3.7-.8z" id="path72"/><path class="st4" d="M339.9 48.2h2.6v5.5h6.4v-5.5h2.6v14h-2.6v-6.1h-6.4v6.1h-2.6z" id="path73"/><path class="st4" d="M361.8 58.9h-5.1l-1.2 3.3H353l5-14h2.4l5 14H363Zm-.8-2.3-1.7-5-1.8 5z" id="path74"/><path class="st4" d="M367 48.2h8.6v2.5h-6.1v3h4.7v2.5h-4.7v6.1H367Z" id="path75"/><path class="st4" d="M380.3 50.7h-4v-2.5h10.5v2.5h-4v11.5h-2.6V50.7Z" id="path76"/><path class="st4" d="M168.8 70.7h5.2c1.3 0 2.5.3 3.6.8 1 .6 1.9 1.4 2.5 2.4.6 1.1.9 2.3.9 3.7 0 1.4-.3 2.7-.9 3.7-.6 1.1-1.4 1.9-2.5 2.4-1 .6-2.2.8-3.6.8h-5.2zm5.2 11.7c1.3 0 2.3-.4 3-1.2.7-.8 1-2 1-3.5s-.3-2.6-1-3.5c-.7-.8-1.7-1.2-3-1.2h-2.7v9.4z" id="path77"/><path class="st4" d="M183.2 70.7h9v2.5h-6.3v3h4.9v2.5h-4.9v3.6h6.5v2.5h-9.2z" id="path78"/><path class="st4" d="M195.8 83.3c-1-1.1-1.5-2.6-1.5-4.6v-8h2.6V78c0 1 .1 1.8.3 2.4.2.6.5 1.2 1 1.5.5.4 1.1.5 2 .5.9 0 1.5-.2 2-.5.5-.4.8-.9 1-1.5.2-.6.3-1.5.3-2.4v-7.3h2.6v8c0 2-.5 3.5-1.5 4.6-1 1.1-2.4 1.7-4.3 1.7s-3.5-.6-4.5-1.7z" id="path79"/><path class="st4" d="M211.6 73.2h-4v-2.5h10.5v2.5h-4v11.5h-2.6V73.2Z" id="path80"/><path class="st4" d="M221.5 84.6c-.9-.2-1.6-.4-2.1-.7l.3-2.7c1.8.9 3.3 1.3 4.6 1.3.7 0 1.3-.1 1.7-.4.4-.3.6-.7.6-1.2 0-.4-.1-.7-.3-1-.2-.3-.5-.5-1-.7-.5-.2-1.1-.4-2-.8-.9-.3-1.6-.6-2.1-.9-.6-.3-1-.7-1.3-1.3-.3-.5-.5-1.1-.5-1.9 0-1.2.4-2.2 1.3-2.9.9-.7 2.1-1.1 3.8-1.1.8 0 1.5.1 2.3.3.8.2 1.5.4 2.1.6l-.3 2.6c-.8-.4-1.6-.6-2.3-.8-.7-.2-1.4-.3-2-.3-.8 0-1.3.1-1.7.4-.4.3-.6.6-.6 1.1 0 .4.1.7.3.9.2.2.5.4.9.6.4.2.9.4 1.6.6 1.6.5 2.8 1.1 3.5 1.8.7.7 1.1 1.6 1.1 2.7s-.4 2-1.1 2.9c-.8.8-2.2 1.2-4.3 1.2-.7.1-1.6 0-2.5-.3z" id="path81"/><path class="st4" d="M234.2 84.1c-1.1-.6-1.9-1.5-2.5-2.5-.6-1.1-.9-2.4-.9-3.8s.3-2.7.9-3.8c.6-1.1 1.5-2 2.6-2.6 1.1-.6 2.3-.9 3.8-.9 1.3 0 2.6.3 3.6.8l-.3 2.4c-.6-.3-1.1-.5-1.6-.6-.5-.1-1.1-.2-1.7-.2-1.4 0-2.5.4-3.3 1.3-.8.9-1.2 2-1.2 3.5s.4 2.6 1.1 3.5c.7.9 1.8 1.3 3.2 1.3.6 0 1.2-.1 1.7-.2s1.1-.3 1.7-.6l.3 2.4c-1.2.5-2.4.8-3.7.8-1.4.1-2.6-.2-3.7-.8z" id="path82"/><path class="st4" d="M243.8 70.7h2.6v5.5h6.4v-5.5h2.6v14h-2.6v-6.1h-6.4v6.1h-2.6z" id="path83"/><path class="st4" d="M258.4 70.7h2.6v11.7h5.8v2.3h-8.3v-14z" id="path84"/><path class="st4" d="M275.6 81.4h-5.1l-1.2 3.3h-2.5l5-14h2.4l5 14h-2.5zm-.8-2.3-1.7-5-1.8 5z" id="path85"/><path class="st4" d="M280.9 70.7h2.5l6 9v-9h2.6v14h-2.1l-6.4-9.6v9.6h-2.6z" id="path86"/><path class="st4" d="M295 70.7h5.2c1.3 0 2.5.3 3.6.8 1 .6 1.9 1.4 2.5 2.4.6 1.1.9 2.3.9 3.7 0 1.4-.3 2.7-.9 3.7-.6 1.1-1.4 1.9-2.5 2.4-1 .6-2.2.8-3.6.8H295Zm5.2 11.7c1.3 0 2.3-.4 3-1.2.7-.8 1-2 1-3.5s-.3-2.6-1-3.5c-.7-.8-1.7-1.2-3-1.2h-2.7v9.4z" id="path87"/><path class="st4" d="M310.9 84.6c-.9-.2-1.6-.4-2.1-.7l.3-2.7c1.8.9 3.3 1.3 4.6 1.3.7 0 1.3-.1 1.7-.4.4-.3.6-.7.6-1.2 0-.4-.1-.7-.3-1-.2-.3-.5-.5-1-.7-.5-.2-1.1-.4-2-.8-.9-.3-1.6-.6-2.1-.9-.6-.3-1-.7-1.3-1.3-.3-.5-.5-1.1-.5-1.9 0-1.2.4-2.2 1.3-2.9.9-.7 2.1-1.1 3.8-1.1.8 0 1.5.1 2.3.3.8.2 1.5.4 2.1.6l-.3 2.6c-.8-.4-1.6-.6-2.3-.8-.7-.2-1.4-.3-2-.3-.8 0-1.3.1-1.7.4-.4.3-.6.6-.6 1.1 0 .4.1.7.3.9.2.2.5.4.9.6.4.2.9.4 1.6.6 1.6.5 2.8 1.1 3.5 1.8.7.7 1.1 1.6 1.1 2.7s-.4 2-1.1 2.9c-.8.8-2.2 1.2-4.3 1.2-.7.1-1.6 0-2.5-.3z" id="path88"/></g></g></g></svg>