<?xml version="1.0" encoding="UTF-8" standalone="no"?>
<!-- Generator: Adobe Illustrator 27.8.0, SVG Export Plug-In . SVG Version: 6.00 Build 0)  -->

<svg
   version="1.1"
   x="0px"
   y="0px"
   viewBox="0 0 124.8 124.8"
   xml:space="preserve"
   id="svg89"
   sodipodi:docname="logo_plain.svg"
   width="124.8"
   height="124.8"
   inkscape:version="1.3 (0e150ed6c4, 2023-07-21)"
   inkscape:export-filename="logo_plain.png"
   inkscape:export-xdpi="264.31717"
   inkscape:export-ydpi="264.31717"
   xmlns:inkscape="http://www.inkscape.org/namespaces/inkscape"
   xmlns:sodipodi="http://sodipodi.sourceforge.net/DTD/sodipodi-0.dtd"
   xmlns="http://www.w3.org/2000/svg"
   xmlns:svg="http://www.w3.org/2000/svg"><defs
   id="defs89" /><sodipodi:namedview
   id="namedview89"
   pagecolor="#ffffff"
   bordercolor="#000000"
   borderopacity="0.25"
   inkscape:showpageshadow="2"
   inkscape:pageopacity="0.0"
   inkscape:pagecheckerboard="0"
   inkscape:deskcolor="#d1d1d1"
   inkscape:zoom="4.9270099"
   inkscape:cx="60.279968"
   inkscape:cy="85.041436"
   inkscape:window-width="1920"
   inkscape:window-height="1054"
   inkscape:window-x="0"
   inkscape:window-y="0"
   inkscape:window-maximized="0"
   inkscape:current-layer="g89" />&#10;<style
   type="text/css"
   id="style1">&#10;	.st0{display:none;}&#10;	.st1{display:inline;fill:#D60956;}&#10;	.st2{display:inline;}&#10;	.st3{fill:#FFFFFF;}&#10;	.st4{fill:#D60956;}&#10;	.st5{display:inline;fill:#EDEDED;}&#10;</style>&#10;<g
   id="Logo"
   class="st0"
   transform="translate(-0.6,-1.3)">&#10;	<ellipse
   class="st1"
   cx="85"
   cy="56.700001"
   rx="62.400002"
   ry="45.400002"
   id="ellipse1" />&#10;	<g
   class="st2"
   id="g4">&#10;		<g
   id="g3">&#10;			<path
   class="st3"
   d="m 53,73.7 v -39 h 4.7 v 25 L 67,48.2 h 5.7 L 62.6,60.1 73,73.7 H 67.3 L 57.7,60.8 v 12.9 z"
   id="path1" />&#10;			<path
   class="st3"
   d="M 79.1,73.7 V 51.9 h -4.4 l 0.6,-3.6 h 3.8 v -6 c 0,-2.3 0.6,-4.1 1.8,-5.4 1.2,-1.4 3,-2 5.4,-2 0.9,0 1.6,0.1 2.3,0.2 0.6,0.1 1.2,0.3 1.8,0.5 l -0.7,4 c -0.4,-0.2 -0.8,-0.3 -1.2,-0.4 -0.4,-0.1 -0.9,-0.1 -1.4,-0.1 -1,0 -1.8,0.3 -2.4,0.8 -0.6,0.6 -0.9,1.5 -0.9,2.8 v 5.7 h 6.9 V 52 h -6.9 v 21.8 h -4.7 z"
   id="path2" />&#10;			<path
   class="st3"
   d="m 104.6,74.2 c -2.2,0 -4.1,-0.6 -5.9,-1.8 -1.8,-1.2 -3.1,-2.8 -4.2,-4.8 -1,-2 -1.5,-4.2 -1.5,-6.7 0,-2.3 0.5,-4.5 1.4,-6.6 0.9,-2 2.3,-3.7 4,-4.9 1.7,-1.2 3.8,-1.9 6.2,-1.9 1.7,0 3.3,0.4 4.9,1.1 1.6,0.7 2.9,2 3.9,3.7 l -1,0.7 V 34.7 h 4.7 v 39 H 113 l -0.9,-5.4 1.2,0.8 c -0.7,1.7 -1.9,3 -3.5,3.8 -1.6,0.9 -3.3,1.3 -5.2,1.3 z m 0.9,-4.1 c 1.2,0 2.3,-0.3 3.5,-0.9 1.2,-0.6 2.1,-1.6 2.9,-2.9 0.8,-1.3 1.1,-3.1 1.1,-5.2 0,-2 -0.4,-3.7 -1.1,-5.1 -0.8,-1.4 -1.7,-2.4 -2.9,-3.1 -1.2,-0.7 -2.3,-1 -3.5,-1 -1.6,0 -3,0.4 -4.1,1.2 -1.1,0.8 -2,1.9 -2.6,3.3 -0.6,1.4 -0.9,2.9 -0.9,4.7 0,1.6 0.3,3.2 0.9,4.5 0.6,1.4 1.5,2.5 2.6,3.3 1.1,0.7 2.5,1.2 4.1,1.2 z"
   id="path3" />&#10;		</g>&#10;	</g>&#10;	<g
   class="st2"
   id="g45">&#10;		<g
   id="g44">&#10;			<path
   class="st4"
   d="m 168.8,39.7 v -14 h 1.9 v 14 z m 7.3,0 -5.2,-7.4 5.2,-6.6 h 2.3 l -5.3,6.5 5.4,7.5 z"
   id="path4" />&#10;			<path
   class="st4"
   d="m 184.4,27.5 h 0.6 l -4.3,12.1 h -2 l 5,-14 h 2 l 5,14 h -2 z m 3.3,8.4 h -6 v -1.7 h 6 z"
   id="path5" />&#10;			<path
   class="st4"
   d="M 195.3,39.7 V 27.4 h -4.1 v -1.7 h 10.1 v 1.7 h -4.1 v 12.3 z"
   id="path6" />&#10;			<path
   class="st4"
   d="m 203.1,39.7 v -14 h 1.9 v 5.8 h 7.1 v -5.8 h 1.9 v 14 h -1.9 V 33.3 H 205 v 6.4 z"
   id="path7" />&#10;			<path
   class="st4"
   d="m 223.4,40 c -1.3,0 -2.5,-0.3 -3.6,-0.9 -1.1,-0.6 -1.9,-1.4 -2.4,-2.5 -0.6,-1.1 -0.9,-2.4 -0.9,-3.9 0,-1.5 0.3,-2.8 0.9,-3.9 0.6,-1.1 1.4,-1.9 2.4,-2.5 1,-0.6 2.2,-0.9 3.6,-0.9 1.3,0 2.5,0.3 3.6,0.9 1.1,0.6 1.9,1.4 2.5,2.5 0.6,1.1 0.9,2.4 0.9,3.9 0,1.5 -0.3,2.8 -0.9,3.9 -0.6,1.1 -1.4,1.9 -2.5,2.5 -1.1,0.6 -2.3,0.9 -3.6,0.9 z m 0,-1.9 c 1.1,0 2,-0.2 2.7,-0.7 0.7,-0.5 1.3,-1.1 1.6,-2 0.4,-0.8 0.5,-1.7 0.5,-2.8 0,-1.1 -0.2,-1.9 -0.5,-2.8 -0.4,-0.8 -0.9,-1.5 -1.6,-2 -0.7,-0.5 -1.6,-0.7 -2.7,-0.7 -1.1,0 -2,0.2 -2.7,0.7 -0.7,0.5 -1.3,1.1 -1.6,2 -0.3,0.9 -0.5,1.7 -0.5,2.8 0,1.1 0.2,1.9 0.5,2.8 0.3,0.9 0.9,1.5 1.6,2 0.7,0.5 1.6,0.7 2.7,0.7 z"
   id="path8" />&#10;			<path
   class="st4"
   d="m 232.7,39.7 v -14 h 1.9 V 38 h 6.4 v 1.7 z"
   id="path9" />&#10;			<path
   class="st4"
   d="m 242.7,39.7 v -14 h 1.9 v 14 z"
   id="path10" />&#10;			<path
   class="st4"
   d="m 251.8,40 c -0.6,0 -1.2,0 -1.7,-0.1 -0.6,-0.1 -1.1,-0.2 -1.6,-0.3 -0.5,-0.1 -0.9,-0.3 -1.2,-0.4 l 0.3,-2 c 0.4,0.2 0.8,0.4 1.3,0.5 0.5,0.2 1.1,0.3 1.7,0.5 0.6,0.1 1.2,0.2 1.8,0.2 0.9,0 1.6,-0.2 2.1,-0.5 0.5,-0.3 0.8,-0.8 0.8,-1.5 0,-0.5 -0.1,-1 -0.4,-1.3 -0.3,-0.3 -0.7,-0.6 -1.2,-0.9 -0.5,-0.2 -1.2,-0.5 -2,-0.7 -0.8,-0.2 -1.5,-0.5 -2.1,-0.8 -0.6,-0.3 -1.2,-0.7 -1.6,-1.2 -0.4,-0.5 -0.6,-1.2 -0.6,-2.1 0,-0.7 0.2,-1.4 0.6,-2 0.4,-0.6 0.9,-1 1.7,-1.3 0.7,-0.3 1.7,-0.5 2.7,-0.5 0.9,0 1.8,0.1 2.5,0.3 0.8,0.2 1.4,0.4 1.9,0.7 l -0.2,2 c -0.8,-0.5 -1.5,-0.8 -2.2,-1 -0.7,-0.2 -1.4,-0.3 -2.1,-0.3 -0.8,0 -1.5,0.2 -2,0.5 -0.5,0.3 -0.8,0.8 -0.8,1.5 0,0.5 0.1,0.8 0.4,1.1 0.3,0.3 0.6,0.5 1.1,0.8 0.5,0.2 1.1,0.4 1.8,0.6 1,0.3 1.8,0.6 2.5,1 0.7,0.4 1.2,0.8 1.6,1.4 0.4,0.6 0.6,1.2 0.6,2 0,0.6 -0.1,1.1 -0.3,1.6 -0.2,0.5 -0.6,0.9 -1,1.2 -0.5,0.3 -1,0.6 -1.7,0.8 -0.7,0.2 -1.8,0.2 -2.7,0.2 z"
   id="path11" />&#10;			<path
   class="st4"
   d="m 265.7,40 c -1.4,0 -2.6,-0.3 -3.6,-0.9 -1,-0.6 -1.9,-1.4 -2.5,-2.5 -0.6,-1.1 -0.9,-2.4 -0.9,-3.9 0,-1.5 0.3,-2.8 0.9,-3.9 0.6,-1.1 1.5,-1.9 2.5,-2.5 1.1,-0.6 2.3,-0.9 3.7,-0.9 0.7,0 1.4,0.1 2,0.2 0.6,0.1 1.2,0.3 1.7,0.6 l -0.2,1.8 c -0.5,-0.2 -1,-0.4 -1.7,-0.6 -0.6,-0.2 -1.2,-0.2 -1.9,-0.2 -1.1,0 -2,0.2 -2.8,0.7 -0.7,0.5 -1.3,1.2 -1.7,2 -0.4,0.8 -0.6,1.8 -0.6,2.8 0,1 0.2,2 0.6,2.8 0.4,0.8 0.9,1.5 1.7,2 0.7,0.5 1.7,0.7 2.8,0.7 0.7,0 1.3,-0.1 1.9,-0.2 0.6,-0.2 1.1,-0.4 1.7,-0.6 l 0.2,1.8 c -0.5,0.2 -1.1,0.4 -1.7,0.6 -0.6,0.1 -1.3,0.2 -2.1,0.2 z"
   id="path12" />&#10;			<path
   class="st4"
   d="m 271.8,39.7 v -14 h 1.9 v 5.8 h 7.1 v -5.8 h 1.9 v 14 h -1.9 v -6.4 h -7.1 v 6.4 z"
   id="path13" />&#10;			<path
   class="st4"
   d="m 285.9,39.7 v -14 h 8.5 v 1.7 h -6.6 v 4.1 h 5.3 v 1.7 h -5.3 V 38 h 6.8 v 1.7 z"
   id="path14" />&#10;			<path
   class="st4"
   d="m 168.8,62.2 v -14 h 8.5 v 1.7 h -6.6 V 54 h 5.1 v 1.7 h -5.1 v 6.5 z"
   id="path15" />&#10;			<path
   class="st4"
   d="m 179.3,62.2 v -14 h 4.5 c 1,0 1.8,0.1 2.6,0.5 0.7,0.3 1.3,0.8 1.7,1.4 0.4,0.6 0.6,1.4 0.6,2.4 0,1 -0.2,1.8 -0.6,2.4 -0.4,0.6 -1,1.2 -1.8,1.5 l 3.1,5.8 h -2.3 l -2.8,-5.5 c 0,0 0,0 0,0 0,0 0,0 0,0 h -2.8 v 5.5 z m 2,-7.2 h 2.5 c 1,0 1.7,-0.2 2.2,-0.7 0.5,-0.5 0.7,-1.1 0.7,-1.9 0,-0.8 -0.2,-1.4 -0.7,-1.9 -0.5,-0.4 -1.2,-0.7 -2.2,-0.7 h -2.5 z"
   id="path16" />&#10;			<path
   class="st4"
   d="m 195.6,50 h 0.6 l -4.3,12.1 h -2 l 5,-14 h 2 l 5,14 h -2 z m 3.3,8.4 h -6 v -1.7 h 6 z"
   id="path17" />&#10;			<path
   class="st4"
   d="m 209.3,62.5 c -1.3,0 -2.4,-0.3 -3.3,-0.8 -0.9,-0.5 -1.5,-1.2 -1.9,-2.1 -0.4,-0.9 -0.6,-2 -0.6,-3.3 v -8.1 h 1.9 v 7.5 c 0,0.6 0,1.3 0.2,1.9 0.1,0.6 0.3,1.1 0.6,1.6 0.3,0.5 0.7,0.8 1.2,1.1 0.5,0.3 1.2,0.4 2,0.4 0.8,0 1.5,-0.1 2,-0.4 0.5,-0.3 0.9,-0.7 1.2,-1.1 0.3,-0.5 0.5,-1 0.6,-1.6 0.1,-0.6 0.1,-1.2 0.1,-1.8 v -7.5 h 1.9 v 8.1 c 0,1.3 -0.2,2.4 -0.6,3.3 -0.4,0.9 -1.1,1.6 -1.9,2.1 -1,0.4 -2.1,0.7 -3.4,0.7 z"
   id="path18" />&#10;			<path
   class="st4"
   d="m 218.2,62.2 v -14 h 8.5 v 1.7 h -6.6 V 54 h 5.3 v 1.7 h -5.3 v 4.7 h 6.8 v 1.7 h -8.7 z"
   id="path19" />&#10;			<path
   class="st4"
   d="m 229.2,62.2 v -14 h 2.1 l 6.9,10.5 V 48.2 h 1.9 v 14 h -1.6 l -7.4,-11.1 v 11.1 z"
   id="path20" />&#10;			<path
   class="st4"
   d="m 249.4,62.5 c -1.3,0 -2.5,-0.3 -3.5,-0.9 -1,-0.6 -1.9,-1.4 -2.5,-2.5 -0.6,-1.1 -0.9,-2.4 -0.9,-3.9 0,-1.5 0.3,-2.8 0.9,-3.8 0.6,-1 1.5,-1.9 2.6,-2.5 1.1,-0.6 2.3,-0.9 3.7,-0.9 0.8,0 1.5,0.1 2.2,0.2 0.7,0.2 1.3,0.3 1.8,0.6 l -0.2,1.7 c -0.5,-0.2 -1.1,-0.4 -1.7,-0.5 -0.6,-0.1 -1.3,-0.2 -2,-0.2 -1.2,0 -2.2,0.2 -2.9,0.7 -0.8,0.5 -1.3,1.2 -1.7,2 -0.4,0.8 -0.6,1.8 -0.6,2.8 0,1.1 0.2,2 0.6,2.9 0.4,0.8 1,1.5 1.8,2 0.8,0.5 1.8,0.7 3,0.7 0.3,0 0.7,0 1.1,-0.1 0.4,-0.1 0.9,-0.2 1.2,-0.3 V 57 H 250 v -1.7 h 4.1 v 6.2 c -0.5,0.3 -1.2,0.6 -2,0.8 -0.8,0.2 -1.7,0.2 -2.7,0.2 z"
   id="path21" />&#10;			<path
   class="st4"
   d="m 256.8,62.2 v -14 h 8.5 v 1.7 h -6.6 V 54 h 5.3 v 1.7 h -5.3 v 4.7 h 6.8 v 1.7 h -8.7 z"
   id="path22" />&#10;			<path
   class="st4"
   d="m 267.2,62.2 1.9,-14 h 1.6 l 3.7,6.9 3.6,-6.9 h 1.6 l 1.9,14 h -2 l -1.4,-11.4 0.5,0.1 -4.2,8 -4.3,-8 0.5,-0.1 -1.4,11.4 z"
   id="path23" />&#10;			<path
   class="st4"
   d="m 284.1,62.2 v -14 h 8.5 v 1.7 H 286 V 54 h 5.3 v 1.7 H 286 v 4.7 h 6.8 v 1.7 h -8.7 z"
   id="path24" />&#10;			<path
   class="st4"
   d="m 295.2,62.2 v -14 h 1.9 v 14 z"
   id="path25" />&#10;			<path
   class="st4"
   d="m 300.3,62.2 v -14 h 2.1 l 6.9,10.5 V 48.2 h 1.9 v 14 h -1.6 l -7.4,-11.1 v 11.1 z"
   id="path26" />&#10;			<path
   class="st4"
   d="m 318.3,62.5 c -0.6,0 -1.2,0 -1.7,-0.1 -0.6,-0.1 -1.1,-0.2 -1.6,-0.3 -0.5,-0.1 -0.9,-0.3 -1.2,-0.4 l 0.3,-2 c 0.4,0.2 0.8,0.4 1.3,0.5 0.5,0.2 1.1,0.3 1.7,0.5 0.6,0.1 1.2,0.2 1.8,0.2 0.9,0 1.6,-0.2 2.1,-0.5 0.5,-0.3 0.8,-0.8 0.8,-1.5 0,-0.5 -0.1,-1 -0.4,-1.3 -0.3,-0.3 -0.7,-0.6 -1.2,-0.9 -0.5,-0.2 -1.2,-0.5 -2,-0.7 -0.8,-0.2 -1.5,-0.5 -2.1,-0.8 -0.6,-0.3 -1.2,-0.7 -1.6,-1.2 -0.4,-0.5 -0.6,-1.2 -0.6,-2.1 0,-0.7 0.2,-1.4 0.6,-2 0.4,-0.6 0.9,-1 1.7,-1.3 0.7,-0.3 1.7,-0.5 2.7,-0.5 0.9,0 1.8,0.1 2.5,0.3 0.8,0.2 1.4,0.4 1.9,0.7 l -0.2,2 c -0.8,-0.5 -1.5,-0.8 -2.2,-1 -0.7,-0.2 -1.4,-0.3 -2.1,-0.3 -0.8,0 -1.5,0.2 -2,0.5 -0.5,0.3 -0.8,0.8 -0.8,1.5 0,0.5 0.1,0.8 0.4,1.1 0.3,0.3 0.6,0.5 1.1,0.8 0.5,0.2 1.1,0.4 1.8,0.6 1,0.3 1.8,0.6 2.5,1 0.7,0.4 1.2,0.8 1.6,1.4 0.4,0.6 0.6,1.2 0.6,2 0,0.6 -0.1,1.1 -0.3,1.6 -0.2,0.5 -0.6,0.9 -1,1.2 -0.5,0.3 -1,0.6 -1.7,0.8 -0.7,0.2 -1.7,0.2 -2.7,0.2 z"
   id="path27" />&#10;			<path
   class="st4"
   d="m 332.3,62.5 c -1.4,0 -2.6,-0.3 -3.6,-0.9 -1,-0.6 -1.9,-1.4 -2.5,-2.5 -0.6,-1.1 -0.9,-2.4 -0.9,-3.9 0,-1.5 0.3,-2.8 0.9,-3.9 0.6,-1.1 1.5,-1.9 2.5,-2.5 1.1,-0.6 2.3,-0.9 3.7,-0.9 0.7,0 1.4,0.1 2,0.2 0.6,0.1 1.2,0.3 1.7,0.6 l -0.2,1.8 c -0.5,-0.2 -1,-0.4 -1.7,-0.6 -0.6,-0.2 -1.2,-0.2 -1.9,-0.2 -1.1,0 -2,0.2 -2.8,0.7 -0.7,0.5 -1.3,1.2 -1.7,2 -0.4,0.8 -0.6,1.8 -0.6,2.8 0,1 0.2,2 0.6,2.8 0.4,0.8 0.9,1.5 1.7,2 0.7,0.5 1.7,0.7 2.8,0.7 0.7,0 1.3,-0.1 1.9,-0.2 0.6,-0.2 1.1,-0.4 1.7,-0.6 l 0.2,1.8 c -0.5,0.2 -1.1,0.4 -1.7,0.6 -0.6,0.1 -1.3,0.2 -2.1,0.2 z"
   id="path28" />&#10;			<path
   class="st4"
   d="m 338.3,62.2 v -14 h 1.9 V 54 h 7.1 v -5.8 h 1.9 v 14 h -1.9 v -6.4 h -7.1 v 6.4 z"
   id="path29" />&#10;			<path
   class="st4"
   d="m 356.7,50 h 0.6 L 353,62.2 h -2 l 5,-14 h 2 l 5,14 h -2 z m 3.3,8.4 h -6 v -1.7 h 6 z"
   id="path30" />&#10;			<path
   class="st4"
   d="m 364.8,62.2 v -14 h 8.5 v 1.7 h -6.6 V 54 h 5.1 v 1.7 h -5.1 v 6.5 z"
   id="path31" />&#10;			<path
   class="st4"
   d="M 378,62.2 V 49.9 h -4.1 V 48.2 H 384 v 1.7 h -4.1 v 12.3 z"
   id="path32" />&#10;			<path
   class="st4"
   d="m 168.8,84.7 v -14 h 5.2 c 1.4,0 2.6,0.3 3.6,0.8 1,0.6 1.9,1.4 2.5,2.4 0.6,1 0.9,2.3 0.9,3.8 0,1.5 -0.3,2.7 -0.9,3.8 -0.6,1 -1.4,1.8 -2.5,2.4 -1.1,0.6 -2.2,0.8 -3.6,0.8 z m 1.9,-1.7 h 3.3 c 1.1,0 2,-0.2 2.7,-0.7 0.7,-0.5 1.3,-1.1 1.6,-1.9 0.4,-0.8 0.6,-1.7 0.6,-2.8 0,-1.1 -0.2,-2 -0.6,-2.8 -0.4,-0.8 -0.9,-1.4 -1.6,-1.9 -0.7,-0.5 -1.6,-0.7 -2.7,-0.7 h -3.3 z"
   id="path33" />&#10;			<path
   class="st4"
   d="m 183.4,84.7 v -14 h 8.5 v 1.7 h -6.6 v 4.1 h 5.3 v 1.7 h -5.3 V 83 h 6.8 v 1.7 z"
   id="path34" />&#10;			<path
   class="st4"
   d="m 200.1,85 c -1.3,0 -2.4,-0.3 -3.3,-0.8 -0.9,-0.5 -1.5,-1.2 -1.9,-2.1 -0.4,-0.9 -0.6,-2 -0.6,-3.3 v -8.1 h 1.9 v 7.5 c 0,0.6 0,1.3 0.2,1.9 0.1,0.6 0.3,1.1 0.6,1.6 0.3,0.5 0.7,0.8 1.2,1.1 0.5,0.3 1.2,0.4 2,0.4 0.8,0 1.5,-0.1 2,-0.4 0.5,-0.3 0.9,-0.7 1.2,-1.1 0.3,-0.5 0.5,-1 0.6,-1.6 0.1,-0.6 0.1,-1.2 0.1,-1.8 v -7.5 h 1.9 v 8.1 c 0,1.3 -0.2,2.4 -0.6,3.3 -0.4,0.9 -1.1,1.6 -1.9,2.1 -1,0.4 -2.1,0.7 -3.4,0.7 z"
   id="path35" />&#10;			<path
   class="st4"
   d="M 211.7,84.7 V 72.4 h -4.1 v -1.7 h 10.1 v 1.7 h -4.1 v 12.3 z"
   id="path36" />&#10;			<path
   class="st4"
   d="m 223.6,85 c -0.6,0 -1.2,0 -1.7,-0.1 -0.6,-0.1 -1.1,-0.2 -1.6,-0.3 -0.5,-0.1 -0.9,-0.3 -1.2,-0.4 l 0.3,-2 c 0.4,0.2 0.8,0.4 1.3,0.5 0.5,0.2 1.1,0.3 1.7,0.5 0.6,0.1 1.2,0.2 1.8,0.2 0.9,0 1.6,-0.2 2.1,-0.5 0.5,-0.3 0.8,-0.8 0.8,-1.5 0,-0.5 -0.1,-1 -0.4,-1.3 -0.3,-0.3 -0.7,-0.6 -1.2,-0.9 -0.5,-0.2 -1.2,-0.5 -2,-0.7 -0.8,-0.2 -1.5,-0.5 -2.1,-0.8 -0.6,-0.3 -1.2,-0.7 -1.6,-1.2 -0.4,-0.5 -0.6,-1.2 -0.6,-2.1 0,-0.7 0.2,-1.4 0.6,-2 0.4,-0.6 0.9,-1 1.7,-1.3 0.7,-0.3 1.7,-0.5 2.7,-0.5 0.9,0 1.8,0.1 2.5,0.3 0.8,0.2 1.4,0.4 1.9,0.7 l -0.2,2 c -0.8,-0.5 -1.5,-0.8 -2.2,-1 -0.7,-0.2 -1.4,-0.3 -2.1,-0.3 -0.8,0 -1.5,0.2 -2,0.5 -0.5,0.3 -0.8,0.8 -0.8,1.5 0,0.5 0.1,0.8 0.4,1.1 0.3,0.3 0.6,0.5 1.1,0.8 0.5,0.2 1.1,0.4 1.8,0.6 1,0.3 1.8,0.6 2.5,1 0.7,0.4 1.2,0.8 1.6,1.4 0.4,0.6 0.6,1.2 0.6,2 0,0.6 -0.1,1.1 -0.3,1.6 -0.2,0.5 -0.6,0.9 -1,1.2 -0.5,0.3 -1,0.6 -1.7,0.8 -0.7,0.2 -1.8,0.2 -2.7,0.2 z"
   id="path37" />&#10;			<path
   class="st4"
   d="m 237.5,85 c -1.4,0 -2.6,-0.3 -3.6,-0.9 -1,-0.6 -1.9,-1.4 -2.5,-2.5 -0.6,-1.1 -0.9,-2.4 -0.9,-3.9 0,-1.5 0.3,-2.8 0.9,-3.9 0.6,-1.1 1.5,-1.9 2.5,-2.5 1.1,-0.6 2.3,-0.9 3.7,-0.9 0.7,0 1.4,0.1 2,0.2 0.6,0.1 1.2,0.3 1.7,0.6 l -0.2,1.8 c -0.5,-0.2 -1,-0.4 -1.7,-0.6 -0.6,-0.2 -1.2,-0.2 -1.9,-0.2 -1.1,0 -2,0.2 -2.8,0.7 -0.7,0.5 -1.3,1.2 -1.7,2 -0.4,0.8 -0.6,1.8 -0.6,2.8 0,1 0.2,2 0.6,2.8 0.4,0.8 0.9,1.5 1.7,2 0.7,0.5 1.7,0.7 2.8,0.7 0.7,0 1.3,-0.1 1.9,-0.2 0.6,-0.2 1.1,-0.4 1.7,-0.6 l 0.2,1.8 c -0.5,0.2 -1.1,0.4 -1.7,0.6 -0.6,0.1 -1.3,0.2 -2.1,0.2 z"
   id="path38" />&#10;			<path
   class="st4"
   d="m 243.6,84.7 v -14 h 1.9 v 5.8 h 7.1 v -5.8 h 1.9 v 14 h -1.9 v -6.4 h -7.1 v 6.4 z"
   id="path39" />&#10;			<path
   class="st4"
   d="m 257.7,84.7 v -14 h 1.9 V 83 h 6.4 v 1.7 z"
   id="path40" />&#10;			<path
   class="st4"
   d="m 272,72.5 h 0.6 l -4.3,12.1 h -2 l 5,-14 h 2 l 5,14 h -2 z m 3.3,8.4 h -6 v -1.7 h 6 z"
   id="path41" />&#10;			<path
   class="st4"
   d="m 280.1,84.7 v -14 h 2.1 l 6.9,10.5 V 70.7 h 1.9 v 14 h -1.6 L 282,73.6 v 11.1 z"
   id="path42" />&#10;			<path
   class="st4"
   d="m 294.1,84.7 v -14 h 5.2 c 1.4,0 2.6,0.3 3.6,0.8 1,0.6 1.9,1.4 2.5,2.4 0.6,1 0.9,2.3 0.9,3.8 0,1.5 -0.3,2.7 -0.9,3.8 -0.6,1 -1.4,1.8 -2.5,2.4 -1.1,0.6 -2.2,0.8 -3.6,0.8 z M 296,83 h 3.3 c 1.1,0 2,-0.2 2.7,-0.7 0.7,-0.5 1.3,-1.1 1.6,-1.9 0.4,-0.8 0.6,-1.7 0.6,-2.8 0,-1.1 -0.2,-2 -0.6,-2.8 -0.4,-0.8 -0.9,-1.4 -1.6,-1.9 -0.7,-0.5 -1.6,-0.7 -2.7,-0.7 H 296 Z"
   id="path43" />&#10;			<path
   class="st4"
   d="m 312.7,85 c -0.6,0 -1.2,0 -1.7,-0.1 -0.6,-0.1 -1.1,-0.2 -1.6,-0.3 -0.5,-0.1 -0.9,-0.3 -1.2,-0.4 l 0.3,-2 c 0.4,0.2 0.8,0.4 1.3,0.5 0.5,0.2 1.1,0.3 1.7,0.5 0.6,0.1 1.2,0.2 1.8,0.2 0.9,0 1.6,-0.2 2.1,-0.5 0.5,-0.3 0.8,-0.8 0.8,-1.5 0,-0.5 -0.1,-1 -0.4,-1.3 -0.3,-0.3 -0.7,-0.6 -1.2,-0.9 -0.5,-0.2 -1.2,-0.5 -2,-0.7 -0.8,-0.2 -1.5,-0.5 -2.1,-0.8 -0.6,-0.3 -1.2,-0.7 -1.6,-1.2 -0.4,-0.5 -0.6,-1.2 -0.6,-2.1 0,-0.7 0.2,-1.4 0.6,-2 0.4,-0.6 0.9,-1 1.7,-1.3 0.7,-0.3 1.7,-0.5 2.7,-0.5 0.9,0 1.8,0.1 2.5,0.3 0.8,0.2 1.4,0.4 1.9,0.7 l -0.2,2 c -0.8,-0.5 -1.5,-0.8 -2.2,-1 -0.7,-0.2 -1.4,-0.3 -2.1,-0.3 -0.8,0 -1.5,0.2 -2,0.5 -0.5,0.3 -0.8,0.8 -0.8,1.5 0,0.5 0.1,0.8 0.4,1.1 0.3,0.3 0.6,0.5 1.1,0.8 0.5,0.2 1.1,0.4 1.8,0.6 1,0.3 1.8,0.6 2.5,1 0.7,0.4 1.2,0.8 1.6,1.4 0.4,0.6 0.6,1.2 0.6,2 0,0.6 -0.1,1.1 -0.3,1.6 -0.2,0.5 -0.6,0.9 -1,1.2 -0.5,0.3 -1,0.6 -1.7,0.8 -0.7,0.2 -1.8,0.2 -2.7,0.2 z"
   id="path44" />&#10;		</g>&#10;	</g>&#10;</g>&#10;<g
   id="Abstände"
   class="st0"
   transform="translate(-0.6,-1.3)">&#10;	<rect
   x="147.39999"
   class="st5"
   width="21.299999"
   height="25.5"
   id="rect45"
   y="0" />&#10;	<rect
   x="147.39999"
   y="85"
   class="st5"
   width="21.299999"
   height="28.299999"
   id="rect46" />&#10;</g>&#10;<g
   id="Logo_Pfade"
   transform="translate(-22.6,-11.3)">&#10;	<g
   id="g89">&#10;		<g
   id="g47"
   transform="translate(0,17.000002)">&#10;			<path
   class="st4"
   d="m 85,11.3 c -34.4,0 -62.4,20.3 -62.4,45.4 0,25 27.9,45.4 62.4,45.4 34.5,0 62.4,-20.3 62.4,-45.4 C 147.4,31.6 119.5,11.3 85,11.3 Z M 66.4,73.7 58.1,62.2 v 11.5 h -6.4 v -39 h 6.4 v 23.7 l 8.1,-10.7 h 7.3 L 64,60.2 73.7,73.7 Z M 91.8,53 H 86 V 73.7 H 79.6 V 53 h -3.7 l 0.6,-5.3 h 3.1 v -5.5 c 0,-2.3 0.7,-4.2 2.1,-5.5 1.4,-1.3 3.3,-2 5.8,-2 1.4,0 2.8,0.2 4.2,0.5 l -0.6,5.2 c -0.6,-0.2 -1.3,-0.3 -2,-0.3 -2,0 -3.1,1.1 -3.1,3.2 v 4.4 h 5.7 V 53 Z m 26.6,20.7 h -6.1 L 112.2,72 c -1,0.7 -2.1,1.3 -3.1,1.6 -1.1,0.4 -2.4,0.5 -3.9,0.5 -2.5,0 -4.7,-0.6 -6.5,-1.8 -1.8,-1.2 -3.2,-2.8 -4.1,-4.9 -0.9,-2 -1.4,-4.3 -1.4,-6.8 0,-2.5 0.5,-4.7 1.4,-6.8 0.9,-2 2.3,-3.7 4.1,-4.9 1.8,-1.2 4,-1.8 6.5,-1.8 2.5,0 4.8,0.7 6.8,2.1 V 34.7 h 6.4 z"
   id="path46" />&#10;			<path
   class="st4"
   d="m 106.1,52.6 c -2,0 -3.6,0.7 -4.7,2.2 -1.1,1.5 -1.7,3.5 -1.7,5.9 0,2.5 0.6,4.4 1.7,5.9 1.1,1.5 2.7,2.2 4.7,2.2 2,0 3.6,-0.7 4.6,-2.2 1,-1.5 1.5,-3.4 1.5,-6 0,-2.5 -0.5,-4.5 -1.5,-6 -1,-1.3 -2.5,-2 -4.6,-2 z"
   id="path47" />&#10;		</g>&#10;		&#10;	</g>&#10;</g>&#10;</svg>
